<?xml version="1.0" encoding="UTF-8" standalone="no"?>
<svg
   xmlns:dc="http://purl.org/dc/elements/1.1/"
   xmlns:cc="http://creativecommons.org/ns#"
   xmlns:rdf="http://www.w3.org/1999/02/22-rdf-syntax-ns#"
   xmlns:svg="http://www.w3.org/2000/svg"
   xmlns="http://www.w3.org/2000/svg"
   viewBox="0 0 4373.3335 3120"
   height="3120"
   width="4373.3335"
   xml:space="preserve"
   id="svg2"
   version="1.1"><metadata
     id="metadata8"><rdf:RDF><cc:Work
         rdf:about=""><dc:format>image/svg+xml</dc:format><dc:type
           rdf:resource="http://purl.org/dc/dcmitype/StillImage" /></cc:Work></rdf:RDF></metadata><defs
     id="defs6"><clipPath
       id="clipPath18"
       clipPathUnits="userSpaceOnUse"><path
         id="path16"
         d="M 0,2340 H 3280 V 0 H 0 Z" /></clipPath><clipPath
       id="clipPath30"
       clipPathUnits="userSpaceOnUse"><path
         id="path28"
         d="m 1381.705,1710.736 c 66.558,-22.049 129.815,-56.672 186.044,-103.871 v 0 l 70.954,70.955 c -53.656,46.323 -113.723,83.461 -179.19,110.724 v 0 z m 36.646,-253.267 c -24.936,18.861 -52.134,34.334 -81.315,46.167 v 0 c -43.139,17.494 -88.709,26.365 -135.442,26.365 v 0 c -0.209,0 -0.416,0 -0.624,-10e-4 v 0 l -143.705,-143.705 c 87.27,58.275 202.282,58.094 289.396,-0.516 v 0 l -173.761,-173.762 353.78,353.78 z" /></clipPath><clipPath
       id="clipPath38"
       clipPathUnits="userSpaceOnUse"><path
         id="path36"
         d="M -32768,32767 H 32767 V -32768 H -32768 Z" /></clipPath><linearGradient
       id="linearGradient44"
       spreadMethod="pad"
       gradientTransform="matrix(-144.95689,144.95689,144.95689,144.95689,1416.8516,1455.9688)"
       gradientUnits="userSpaceOnUse"
       y2="0"
       x2="1"
       y1="0"
       x1="0"><stop
         id="stop40"
         offset="0"
         style="stop-opacity:1;stop-color:#ffffff" /><stop
         id="stop42"
         offset="1"
         style="stop-opacity:0;stop-color:#ffffff" /></linearGradient><mask
       id="mask46"
       height="1"
       width="1"
       y="0"
       x="0"
       maskUnits="userSpaceOnUse"><g
         id="g56"><g
           id="g54"
           clip-path="url(#clipPath38)"><g
             id="g52"><g
               id="g50"><path
                 id="path48"
                 style="fill:url(#linearGradient44);stroke:none"
                 d="M -32768,32767 H 32767 V -32768 H -32768 Z" /></g></g></g></g></mask><linearGradient
       id="linearGradient66"
       spreadMethod="pad"
       gradientTransform="matrix(-144.95689,144.95689,144.95689,144.95689,1416.8516,1455.9688)"
       gradientUnits="userSpaceOnUse"
       y2="0"
       x2="1"
       y1="0"
       x1="0"><stop
         id="stop62"
         offset="0"
         style="stop-opacity:1;stop-color:#008c95" /><stop
         id="stop64"
         offset="1"
         style="stop-opacity:1;stop-color:#3ddeed" /></linearGradient><clipPath
       id="clipPath76"
       clipPathUnits="userSpaceOnUse"><path
         id="path74"
         d="m 1861.648,882.531 c 24.936,-18.86 52.134,-34.334 81.315,-46.166 v 0 C 1986.103,818.871 2031.673,810 2078.406,810 v 0 c 0.208,0 0.417,0 0.625,10e-4 v 0 l 143.708,143.707 c -87.27,-58.275 -202.287,-58.096 -289.4,0.513 v 0 l 180.422,180.423 z M 1641.297,662.18 c 53.656,-46.323 113.722,-83.461 179.19,-110.723 v 0 l 77.808,77.807 c -66.558,22.049 -129.815,56.672 -186.044,103.87 v 0 z" /></clipPath><clipPath
       id="clipPath84"
       clipPathUnits="userSpaceOnUse"><path
         id="path82"
         d="M -32768,32767 H 32767 V -32768 H -32768 Z" /></clipPath><linearGradient
       id="linearGradient90"
       spreadMethod="pad"
       gradientTransform="matrix(-144.95689,144.95689,144.95689,144.95689,2014.7665,745.73608)"
       gradientUnits="userSpaceOnUse"
       y2="0"
       x2="1"
       y1="0"
       x1="0"><stop
         id="stop86"
         offset="0"
         style="stop-opacity:0;stop-color:#ffffff" /><stop
         id="stop88"
         offset="1"
         style="stop-opacity:1;stop-color:#ffffff" /></linearGradient><mask
       id="mask92"
       height="1"
       width="1"
       y="0"
       x="0"
       maskUnits="userSpaceOnUse"><g
         id="g102"><g
           id="g100"
           clip-path="url(#clipPath84)"><g
             id="g98"><g
               id="g96"><path
                 id="path94"
                 style="fill:url(#linearGradient90);stroke:none"
                 d="M -32768,32767 H 32767 V -32768 H -32768 Z" /></g></g></g></g></mask><linearGradient
       id="linearGradient112"
       spreadMethod="pad"
       gradientTransform="matrix(-144.95689,144.95689,144.95689,144.95689,2014.7665,745.73608)"
       gradientUnits="userSpaceOnUse"
       y2="0"
       x2="1"
       y1="0"
       x1="0"><stop
         id="stop108"
         offset="0"
         style="stop-opacity:1;stop-color:#3ddeed" /><stop
         id="stop110"
         offset="1"
         style="stop-opacity:1;stop-color:#008c95" /></linearGradient></defs><g
     transform="matrix(1.3333333,0,0,-1.3333333,0,3120)"
     id="g10"><g
       id="g12"><g
         clip-path="url(#clipPath18)"
         id="g14"><g
           transform="translate(1712.251,733.1348)"
           id="g20"><path
             id="path22"
             style="fill:#2dccd3;fill-opacity:1;fill-rule:nonzero;stroke:none"
             d="m 0,0 149.397,149.396 c 24.937,-18.86 52.135,-34.333 81.315,-46.167 43.14,-17.493 88.709,-26.364 135.443,-26.364 46.733,0.001 92.303,8.87 135.443,26.364 44.69,18.124 84.766,44.728 119.115,79.078 34.35,34.349 60.956,74.426 79.078,119.116 17.494,43.139 26.364,88.71 26.364,135.442 0,46.734 -8.87,92.304 -26.364,135.444 -18.123,44.689 -44.728,84.766 -79.078,119.115 -34.349,34.35 -74.425,60.955 -119.115,79.077 -43.14,17.495 -88.71,26.365 -135.443,26.365 -46.734,0 -92.303,-8.87 -135.443,-26.364 -44.689,-18.123 -84.766,-44.729 -119.115,-79.078 L -326.81,253.018 c -101.374,-101.374 -266.321,-101.374 -367.695,0 -101.374,101.374 -101.374,266.321 0,367.695 89.282,89.283 227.869,99.915 328.915,31.931 L -546.013,472.221 c -19.526,-19.527 -19.526,-51.185 0,-70.711 19.527,-19.527 51.185,-19.527 70.711,0 l 438.406,438.407 c 222.244,222.243 583.859,222.242 806.102,0 222.243,-222.244 222.243,-583.859 0,-806.103 C 558.875,-176.517 223.713,-187.785 0,0 m -913.708,33.814 c -222.243,222.244 -222.243,583.859 0,806.103 210.331,210.331 545.493,221.599 769.206,33.814 L -293.899,724.334 c -24.937,18.861 -52.135,34.334 -81.315,46.167 -43.14,17.495 -88.71,26.365 -135.443,26.365 -46.734,0 -92.303,-8.87 -135.444,-26.364 -44.689,-18.123 -84.765,-44.729 -119.115,-79.078 -34.349,-34.35 -60.954,-74.426 -79.078,-119.115 -17.493,-43.14 -26.364,-88.71 -26.364,-135.444 0,-46.732 8.871,-92.303 26.364,-135.443 18.124,-44.69 44.729,-84.765 79.078,-119.115 34.349,-34.349 74.426,-60.954 119.115,-79.078 43.141,-17.493 88.71,-26.364 135.444,-26.364 46.733,0.001 92.303,8.87 135.443,26.364 44.69,18.124 84.766,44.728 119.115,79.078 l 438.406,438.406 c 101.374,101.374 266.322,101.374 367.696,0 101.374,-101.374 101.374,-266.321 0,-367.695 C 460.721,163.735 322.134,153.104 221.087,221.087 L 401.51,401.51 c 19.527,19.526 19.527,51.184 0,70.711 -19.526,19.526 -51.184,19.526 -70.71,0 L -107.606,33.814 c -222.244,-222.243 -583.859,-222.243 -806.102,0 M 987.091,184.77 c 32.556,80.283 49.064,165.099 49.064,252.095 0,86.996 -16.507,171.814 -49.063,252.097 -33.717,83.144 -83.234,157.724 -147.175,221.665 -63.942,63.942 -138.521,113.459 -221.666,147.175 -80.282,32.556 -165.1,49.063 -252.096,49.063 -86.996,10e-4 -171.814,-16.507 -252.096,-49.063 -68.261,-27.681 -130.742,-66.02 -186.31,-114.24 -55.568,48.22 -118.049,86.559 -186.31,114.24 -80.283,32.556 -165.101,49.063 -252.097,49.063 -86.995,10e-4 -171.813,-16.507 -252.095,-49.063 -83.145,-33.717 -157.724,-83.233 -221.666,-147.175 -63.942,-63.942 -113.458,-138.521 -147.175,-221.666 -32.556,-80.282 -49.064,-165.099 -49.063,-252.095 0,-86.997 16.507,-171.814 49.063,-252.096 33.716,-83.145 83.233,-157.724 147.175,-221.666 63.941,-63.942 138.521,-113.458 221.666,-147.175 80.282,-32.556 165.1,-49.064 252.096,-49.064 86.996,0 171.813,16.508 252.095,49.064 68.262,27.681 130.743,66.02 186.311,114.239 55.567,-48.219 118.048,-86.558 186.31,-114.239 80.283,-32.556 165.1,-49.064 252.096,-49.064 86.996,0 171.813,16.508 252.096,49.064 83.145,33.717 157.724,83.233 221.666,147.175 63.942,63.942 113.458,138.521 147.174,221.666" /></g></g></g><g
       id="g24"><g
         clip-path="url(#clipPath30)"
         id="g26"><g
           id="g32"><g
             id="g34" /><g
             mask="url(#mask46)"
             id="g58"><g
               id="g60"><path
                 id="path68"
                 style="fill:url(#linearGradient66);stroke:none"
                 d="m 1381.705,1710.736 c 66.558,-22.049 129.815,-56.672 186.044,-103.871 v 0 l 70.954,70.955 c -53.656,46.323 -113.723,83.461 -179.19,110.724 v 0 z m 36.646,-253.267 c -24.936,18.861 -52.134,34.334 -81.315,46.167 v 0 c -43.139,17.494 -88.709,26.365 -135.442,26.365 v 0 c -0.209,0 -0.416,0 -0.624,-10e-4 v 0 l -143.705,-143.705 c 87.27,58.275 202.282,58.094 289.396,-0.516 v 0 l -173.761,-173.762 353.78,353.78 z" /></g></g></g></g></g><g
       id="g70"><g
         clip-path="url(#clipPath76)"
         id="g72"><g
           id="g78"><g
             id="g80" /><g
             mask="url(#mask92)"
             id="g104"><g
               id="g106"><path
                 id="path114"
                 style="fill:url(#linearGradient112);stroke:none"
                 d="m 1861.648,882.531 c 24.936,-18.86 52.134,-34.334 81.315,-46.166 v 0 C 1986.103,818.871 2031.673,810 2078.406,810 v 0 c 0.208,0 0.417,0 0.625,10e-4 v 0 l 143.708,143.707 c -87.27,-58.275 -202.287,-58.096 -289.4,0.513 v 0 l 180.422,180.423 z M 1641.297,662.18 c 53.656,-46.323 113.722,-83.461 179.19,-110.723 v 0 l 77.808,77.807 c -66.558,22.049 -129.815,56.672 -186.044,103.87 v 0 z" /></g></g></g></g></g></g></svg>